Patient4_TMGait_0pt3_01_right_27_EMG.mot
version=1
nRows=23
nColumns=33
inDegrees=no
endheader
time	1LAddLong	2LGlutMax	3LGlutMed	4LIliopsoas	5LSemiMemb	6LBicFemLong	7LRecFem	8LVastMed	9LVastLat	10LGasMed	11LTibAnt	12lTibPost	13LPeroneusLong	14LSol	15LExtDigLong	16LFlexDigLong	17RAddLong	18RGlutMax	19RGlutMed	20RIliopsoas	21RSemiMemb	22RBicFemLong	23RRecFem	24RVastMed	25RVastLat	26RGasMed	27RTibAnt	28RTibPost	29RPeroneusLong	30RSol	31RExtDigLong	32RFlexDigLong
49.9	0.001831	0.13336	-0.19058	-0.004272	0.047455	0.028687	-0.042114	-0.007782	-0.028534	-0.021515	-0.004272	0.018158	0.14221	0.045776	0.023651	0.008087	0.050812	0.25955	0.019379	0.089111	-0.034637	-0.047302	0.13428	-0.001068	-0.026855	0.006561	-0.36926	-0.000305	0.0737	-0.11627	-0.001678	-0.013123
49.901	0.004425	0.075226	-0.31158	0.016327	0.035095	0.15945	-0.062103	0.007019	-0.015564	0	-0.016174	0.012207	0.22827	-0.24902	-0.16113	-0.006409	0.074463	0.26977	0.096893	0.062408	-0.035553	-0.058289	0.12466	0.028534	-0.038147	-0.000916	-0.20721	0	0.031891	-0.006409	-0.00061	-0.026855
49.902	-0.001678	0.028076	-0.13382	0.013885	0.026703	-0.070343	-0.058594	-0.001068	0.005035	0.043945	-0.010834	0.009155	0.007324	-0.18112	-0.12573	0.016632	0.070648	0.28122	0.05661	0.049133	-0.047455	-0.034485	0.13702	-0.031281	-0.040131	-0.006409	-0.53757	0.001068	0.002747	0.045624	-0.001221	-0.020599
49.903	0.005035	0.033417	0.083771	0.030518	0.006866	-0.11139	0.033875	-0.000763	-0.002899	0.054932	-0.017242	0.006866	0.16357	0.061493	-0.01358	-0.011749	0.057983	0.32791	0.004578	0.025635	-0.057983	-0.050659	0.13626	-0.046387	-0.044708	-0.006256	-0.04364	0.000763	-0.042267	-0.001068	-0.002594	-0.016174
49.904	0.005341	-0.01709	0.06546	0.031281	-0.013123	0.027161	0.061798	-0.007477	-0.036163	0.051117	-0.003357	0.009918	-0.11765	0.093689	0.045319	-0.010681	0.045929	0.30014	0.035706	0.036774	-0.041046	-0.047455	0.11276	-0.044708	-0.050201	-0.001984	0.19959	0.001678	0.038605	-0.069427	-0.002747	-0.016022
49.905	0.005188	-0.039063	0.012512	0.000458	-0.006561	0.072327	0.066376	-0.00061	-0.018768	0.18478	-0.002289	0.013733	-0.084534	-0.067749	0.049286	-0.00824	0.038452	0.29037	0.14145	0.017548	-0.040894	-0.057678	0.1445	-0.014801	-0.046692	-0.004425	0.48218	-0.003052	0.11765	-0.045929	-0.002747	-0.016174
49.906	0.009155	-0.012512	0.020752	-0.001526	-0.006409	0.14435	-0.03479	0.0177	0.103	0.80704	0.00412	0.009155	0.006714	-0.16892	0.059204	0.013885	0.03006	0.2742	0.21881	-0.05127	-0.033417	-0.033875	0.177	-0.017853	-0.046997	-0.007629	0.29312	0.000916	0.20721	-0.027466	-0.003815	-0.01709
49.907	0.006561	0.007324	0.031738	0.004272	0.014496	0.18814	-0.097198	0.014191	0.15656	1.0068	-0.011139	0.011139	0.070038	-0.3125	0.066681	0.006256	-0.007172	0.21713	0.17853	0.028839	-0.024414	-0.021667	0.13931	-0.029297	-0.030975	-0.00824	0.26215	-0.002289	-0.15305	0.080872	-0.002136	-0.007782
49.908	0.004883	0.004425	-0.023956	0.011292	0.018616	0.014038	-0.086212	0.001221	0.2269	0.22781	-0.010071	0.022583	-0.024872	-0.43671	0.093689	0.025024	-0.030823	0.21576	-0.13931	0.10864	-0.030365	-0.028992	0.15045	0.001221	-0.044098	-0.010071	0.033875	0.003815	-0.33691	0.13702	-0.002594	-0.011902
49.909	0.01709	-0.007935	-0.035248	0.00351	0.008087	-0.1294	-0.12543	0.012665	0.31265	-0.053711	-0.006714	0.05249	0.056915	-0.75577	0.045929	0.016937	-0.021973	0.21637	-0.34622	-0.00885	-0.031433	-0.022583	0.16205	-0.029907	-0.018311	-0.004425	-0.74875	0.001526	0.10071	0.000458	0	-0.004578
49.91	0.012054	-0.013275	-0.1181	0.012665	-0.031738	-0.072479	-0.15701	0.006866	0.51178	-0.42419	-0.013275	-0.004425	0.12604	-0.49927	0.005188	0.026398	-0.028381	0.26337	-0.07309	-0.11093	-0.01709	-0.027161	0.12039	0.017395	-0.019989	0.001984	-0.86517	0.001831	0.18799	-0.064697	-0.004883	0.000305
49.911	0.008545	0.013123	-0.000458	0.012817	-0.07782	-0.009308	-0.1564	0.026245	0.62073	-0.76187	-0.004578	0.036011	-0.11215	-0.27603	-0.030975	0.005035	-0.028687	0.26398	0.16296	-0.24033	-0.029297	-0.020142	0.12222	-0.053711	-0.023499	0.002289	-0.68848	-0.000305	0.084686	-0.05249	-0.002136	0.001678
49.912	-0.003357	0.029297	-0.11414	0.022583	-0.066376	0.083466	-0.092316	0.005035	0.55466	-0.35538	0.004883	-0.018921	0.14206	-0.059967	-0.083923	-0.030975	-0.009155	0.21133	0.18387	-0.21179	-0.024109	-0.028534	0.12772	-0.026398	-0.023956	-0.007629	0.36728	-0.002441	-0.094299	-0.11765	-0.00351	-0.00351
49.913	-0.012817	0.031586	-0.087585	0.010529	-0.056763	0.22781	-0.001068	0.008087	0.20355	-0.11459	-0.021667	-0.003204	0.10696	0.070496	-0.058136	-0.022125	-0.006104	0.17212	0.065308	-0.14328	-0.015564	0.00473	0.19882	-0.039063	-0.016327	-0.000153	0.083008	0.000305	-0.074158	-0.16052	-0.003357	-0.002899
49.914	-0.003662	0.093231	-0.005341	-0.014038	-0.032959	0.30777	0.084686	0.004272	-0.18051	-0.27802	0.017548	0.008087	-0.24155	0.44342	-0.044403	-0.010376	0.013733	0.19806	-0.18295	-0.16083	-0.005798	-0.010071	0.17914	0.001678	-0.001984	0.004425	-0.60684	0.00061	0.21027	-0.15152	-0.006256	-0.006256
49.915	-0.021667	0.14282	-0.02243	-0.021057	0.065613	0.1857	0.11917	0.002289	-0.43991	-0.37155	0.019836	0.006561	-0.12299	0.23758	-0.039063	-0.023956	0.013733	0.20096	-0.38498	-0.12665	0.01709	0.019531	0.10895	-0.010681	0.00885	0	-0.82275	0	0.29037	-0.10986	-0.001373	-0.013428
49.916	-0.035858	0.1384	-0.07309	-0.024109	0.060577	0.16968	0.15533	0.009155	-0.53055	-0.16953	0.018616	0.006409	-0.26352	0.19592	0.24429	-0.001373	0.03479	0.14282	-0.18173	0.072632	0.011597	0.015411	0.12146	0.012512	-0.000305	-0.001221	-0.62454	0.001221	0.099945	-0.034485	-0.00824	-0.014496
49.917	-0.027161	0.14847	-0.011139	-0.00885	0.046539	-0.000305	0.16296	-0.002136	-0.49866	-0.10666	-0.03952	0.008698	0.68878	0.3624	-0.033264	-0.003357	0.083923	0.13367	-0.20371	0.16815	0.016174	-0.007172	0.14908	-0.016174	-0.010376	0	0.16892	0.001221	0.032806	0.019379	-0.002747	-0.008087
49.918	-0.028992	0.14633	0.20279	0.023041	0.051727	-0.095062	0.12772	-0.014954	-0.58166	-0.13825	-0.12268	0.004883	0.55832	0.61218	0.21545	0.012512	0.16144	0.10117	-0.18387	0.12802	0.005646	-0.018158	0.13168	-0.029602	-0.021973	-0.011597	0.17899	-0.003815	-0.12314	0.12558	-0.001831	-0.014954
49.919	-0.036316	0.14099	0.2713	0.028534	0.010376	-0.037689	0.078278	-0.014648	-0.51804	-0.14099	-0.041351	0.006866	-0.091248	0.51071	-0.061646	-0.001068	0.26047	0.079651	-0.040741	0.075836	0.012512	-0.022583	0.16647	-0.055847	-0.009003	-0.022888	0.18982	-0.003052	-0.16525	0.23071	-0.004425	-0.010376
49.92	-0.034637	0.17914	0.13672	0.002289	-0.10819	0.061493	0.021057	-0.000153	-0.32318	-0.19058	-0.009308	0.006104	-0.51422	0.31189	-0.2739	0.013733	0.1889	0.12039	-0.066528	0.005035	-0.000916	-0.034027	0.14221	-0.048065	-0.011444	-0.015717	0.31601	-0.001373	-0.19363	0.18936	-0.001678	-0.016022
49.921	-0.010223	0.22018	0.10223	-0.008392	-0.18967	0.13855	-0.024872	-0.039215	-0.12741	-0.16815	-0.04303	0.004425	0.018463	0.42786	-0.084686	0.011597	0.10803	0.080872	-0.36072	0.053711	0.006104	-0.033875	0.14877	-0.055695	-0.022278	-0.016174	0.17914	-0.005798	-0.051727	0.1387	-0.001068	-0.017395
49.922	0.030823	0.1622	0.093994	-0.013123	-0.17029	0.041656	-0.11627	-0.035858	-0.022583	-0.057373	0.07843	0.00824	-1.0005	0.31769	-0.08667	-0.005798	0.013123	0.045776	-0.24933	0.12344	0.005188	-0.046997	0.17227	-0.047302	-0.009766	-0.018616	0.080109	0.001221	0.028076	0.075073	-0.000153	-0.014191
